<?xml version="1.0" encoding="utf-8"?>
<svg version="1.1" xmlns="http://www.w3.org/2000/svg" xmlns:xlink="http://www.w3.org/1999/xlink" x="0px" y="0px"  width="36px" height="36px"
	 viewBox="0 0 98 98" enable-background="new 0 0 98 98" xml:space="preserve">
<g id="Asset_List">
	<linearGradient id="SVGID_1_" gradientUnits="userSpaceOnUse" x1="72" y1="15" x2="72" y2="28.8162">
		<stop  offset="0" style="stop-color:#3EBAD2"/>
		<stop  offset="1" style="stop-color:#287F92"/>
	</linearGradient>
	<polygon fill="url(#SVGID_1_)" points="76,15 68,15 68,21 76,28.8 	"/>
	<linearGradient id="SVGID_2_" gradientUnits="userSpaceOnUse" x1="53.676" y1="12.3916" x2="53.676" y2="73">
		<stop  offset="0" style="stop-color:#3EBAD2"/>
		<stop  offset="1" style="stop-color:#287F92"/>
	</linearGradient>
	<path fill="url(#SVGID_2_)" d="M53.7,12.4L20,46h7v10h11.9l7.1,3.2V58h14v6.6c4,0.5,6.5,1.3,9,2.4c1.2,0.5,4,1.8,4,5.3V73h7V46h7.3
		L53.7,12.4z"/>
	<linearGradient id="SVGID_3_" gradientUnits="userSpaceOnUse" x1="40.2617" y1="58.3065" x2="40.2617" y2="84.4875">
		<stop  offset="3.667090e-03" style="stop-color:#1A6FA7"/>
		<stop  offset="1" style="stop-color:#123755"/>
	</linearGradient>
	<path fill="url(#SVGID_3_)" d="M9.5,80.7c0.5,0,0.9,0.5,1.4,0.5h4.2c1.4,1.9,3.7,3.3,6.5,3.3c2.8,0,5.1-1.4,6.5-3.3h23.8
		c1.4,1.9,3.7,3.3,6.5,3.3c2.3,0,4.7-1.4,6.1-3.3h4.7c0.5,0,0.9-0.5,1.4-0.9c0-0.5,0.5-0.9,0-1.4l-1.4-2.3v-0.5c0-0.5,0-0.5,0-0.9
		c0-0.9,0-1.9,0-2.8c0-0.5,0-1.9-1.4-2.3c-2.8-1.4-7.5-2.3-11.2-2.8c-2.3-0.5-4.2-0.9-4.7-1.4l-14-7.5c-0.5,0-0.5,0-0.9,0
		c-0.9,0-14.5,0-14.5,0c-0.5,0-0.9,0-1.4,0.5l-5.1,7h-2.8h-0.5c-0.5,0.5-0.9,0.5-1.4,1.4c-0.5,0.9-0.9,1.9-0.9,3.3
		c0,0.9,0,5.1,0,6.1l-0.9,2.3C9.5,79.3,9.5,79.8,9.5,80.7z M23.1,61.1c0.5,0,1.4,0,2.3,0v4.7h-5.6L23.1,61.1z M44.1,66.3H27.3v-4.7
		c3.3,0,7.5,0,8.9,0L44.1,66.3z M53.9,76.5c0-2.8,2.3-4.7,4.7-4.7c2.8,0,4.7,2.3,4.7,4.7c0,2.8-2.3,4.7-4.7,4.7
		C55.8,81.2,53.9,79.3,53.9,76.5z M17,76.5c0-2.8,2.3-4.7,4.7-4.7c2.8,0,4.7,2.3,4.7,4.7c0,2.8-2.3,4.7-4.7,4.7S17.5,79.3,17,76.5z"
		/>
</g>
</svg>
